<svg xmlns="http://www.w3.org/2000/svg" xmlns:xlink="http://www.w3.org/1999/xlink" width="341.912" height="511.064" viewBox="0 0 341.912 511.064">
  <defs>
    <linearGradient id="linear-gradient" x1="0.144" y1="1.024" x2="0.919" y2="-0.013" gradientUnits="objectBoundingBox">
      <stop offset="0" stop-color="gray" stop-opacity="0.251"/>
      <stop offset="0.54" stop-color="gray" stop-opacity="0.122"/>
      <stop offset="1" stop-color="gray" stop-opacity="0.102"/>
    </linearGradient>
    <linearGradient id="linear-gradient-2" x1="0.5" y1="1" x2="0.5" y2="0" xlink:href="#linear-gradient"/>
  </defs>
  <g id="Group_3" data-name="Group 3" transform="translate(-87.846 -36.026)">
    <path id="Path_14" data-name="Path 14" d="M776.877,144.67l-264.87.643a10.887,10.887,0,0,0-10.858,10.909l1.206,485.826a10.887,10.887,0,0,0,10.916,10.858l264.877-.643a10.887,10.887,0,0,0,10.843-10.894l-1.206-485.826A10.887,10.887,0,0,0,776.877,144.67Z" transform="translate(-386.412 -105.815)" fill="url(#linear-gradient)"/>
    <rect id="Rectangle_1751" data-name="Rectangle 1751" width="278.893" height="503.403" rx="13.64" transform="translate(118.602 36.707) rotate(-0.14)" fill="#fff"/>
    <path id="_Path_" data-name="&lt;Path&gt;" d="M781.261,285.776l-.278-117.08a10.6,10.6,0,0,0-10.617-10.565l-51.817.124a22.607,22.607,0,0,1-22.234,19.288l-96.323.234a22.608,22.608,0,0,1-22.33-19.178l-51.027.124a10.594,10.594,0,0,0-10.565,10.616l.285,117.234" transform="translate(-390.423 -109.434)" fill="#fafafa"/>
    <path id="_Path_2" data-name="&lt;Path&gt;" d="M516.46,333.213l.826,339.74A10.6,10.6,0,0,0,527.9,683.519l243.724-.592a10.594,10.594,0,0,0,10.565-10.616l-.834-340.72" transform="translate(-390.528 -156.067)" fill="#fafafa"/>
    <g id="Group_2" data-name="Group 2" transform="translate(87.846 192.201)" opacity="0.5">
      <rect id="Rectangle_1753" data-name="Rectangle 1753" width="341.912" height="116.305" fill="url(#linear-gradient-2)"/>
    </g>
    <rect id="Rectangle_1754" data-name="Rectangle 1754" width="333.774" height="107.539" transform="translate(91.918 196.982)" fill="#fff"/>
    <rect id="Rectangle_1755" data-name="Rectangle 1755" width="129.846" height="10.353" transform="translate(225.033 236.808)" fill="#ff3f34"/>
    <rect id="Rectangle_1756" data-name="Rectangle 1756" width="129.846" height="10.353" transform="translate(225.033 257.522)" fill="#ff3f34"/>
    <rect id="Rectangle_1757" data-name="Rectangle 1757" width="129.846" height="10.353" transform="translate(225.033 351.52)" fill="#e0e0e0"/>
    <rect id="Rectangle_1758" data-name="Rectangle 1758" width="129.846" height="10.353" transform="translate(225.033 372.226)" fill="#eee"/>
    <ellipse id="Ellipse_42" data-name="Ellipse 42" cx="24.523" cy="24.64" rx="24.523" ry="24.64" transform="translate(136.161 223.428)" fill="#f5f5f5"/>
    <path id="Path_15" data-name="Path 15" d="M568.713,454.4H547.437a6.339,6.339,0,0,0-5.177,2.749,31.9,31.9,0,0,0,31.44.176,6.332,6.332,0,0,0-4.987-2.925Z" transform="translate(-397.464 -189.084)" fill="#6c63ff"/>
    <path id="Path_16" data-name="Path 16" d="M547.818,431.68S544.7,440.746,543,439.9c0,0,16.407,14.17,30.891,0a43.181,43.181,0,0,0-6.237-8.218Z" transform="translate(-397.663 -182.976)" fill="#333"/>
    <circle id="Ellipse_43" data-name="Ellipse 43" cx="12.188" cy="12.188" r="12.188" transform="translate(148.481 235.668)" fill="#333"/>
    <path id="Path_17" data-name="Path 17" d="M290.1,388.41h8.5v3.3a3.9,3.9,0,0,1-3.9,3.9h-.731a3.9,3.9,0,0,1-3.9-3.9v-3.3Z" transform="translate(-133.712 -127.312)" opacity="0.1"/>
    <path id="Path_18" data-name="Path 18" d="M291,388.13h6.712a.9.9,0,0,1,.9.9v2.406a3.9,3.9,0,0,1-3.912,3.912h-.731a3.9,3.9,0,0,1-3.9-3.9v-2.406a.9.9,0,0,1,.9-.9Z" transform="translate(-133.712 -127.237)" fill="#fda57d"/>
    <path id="Path_19" data-name="Path 19" d="M558.13,449.616a12.232,12.232,0,0,0,8.5,0V448.57h-8.5Z" transform="translate(-401.731 -187.516)" opacity="0.1"/>
    <circle id="Ellipse_44" data-name="Ellipse 44" cx="12.188" cy="12.188" r="12.188" transform="translate(148.481 238.307)" fill="#fda57d"/>
    <path id="Path_20" data-name="Path 20" d="M548,424.574h23.236s-1.982-9.381-10.77-8.774S548,424.574,548,424.574Z" transform="translate(-399.007 -178.699)" fill="#333"/>
    <ellipse id="Ellipse_45" data-name="Ellipse 45" cx="1.133" cy="2.128" rx="1.133" ry="2.128" transform="translate(147.603 247.849)" fill="#fda57d"/>
    <ellipse id="Ellipse_46" data-name="Ellipse 46" cx="1.133" cy="2.128" rx="1.133" ry="2.128" transform="translate(171.403 247.849)" fill="#fda57d"/>
    <path id="Path_21" data-name="Path 21" d="M548,425h23.236s-1.982-9.381-10.77-8.774S548,425,548,425Z" transform="translate(-399.007 -178.814)" opacity="0.1"/>
    <ellipse id="Ellipse_47" data-name="Ellipse 47" cx="24.523" cy="24.64" rx="24.523" ry="24.64" transform="translate(152.093 338.937)" fill="#e0e0e0"/>
    <ellipse id="Ellipse_48" data-name="Ellipse 48" cx="24.523" cy="24.64" rx="24.523" ry="24.64" transform="translate(152.093 433.731)" fill="#e0e0e0"/>
    <rect id="Rectangle_1760" data-name="Rectangle 1760" width="129.846" height="10.353" transform="translate(225.033 443.127)" fill="#e0e0e0"/>
    <rect id="Rectangle_1761" data-name="Rectangle 1761" width="129.846" height="10.353" transform="translate(225.033 463.833)" fill="#eee"/>
    <rect id="Rectangle_1764" data-name="Rectangle 1764" width="62.148" height="3.882" rx="1.941" transform="translate(224.472 55.515) rotate(-0.86)" fill="#dbdbdb"/>
    <circle id="Ellipse_49" data-name="Ellipse 49" cx="2.332" cy="2.332" r="2.332" transform="translate(297.477 53.644) rotate(-0.86)" fill="#dbdbdb"/>
    <rect id="Rectangle_1765" data-name="Rectangle 1765" width="129.846" height="10.353" transform="translate(225.034 125.97)" fill="#e0e0e0"/>
    <rect id="Rectangle_1766" data-name="Rectangle 1766" width="129.846" height="10.353" transform="translate(225.034 146.675)" fill="#eee"/>
    <ellipse id="Ellipse_50" data-name="Ellipse 50" cx="24.523" cy="24.64" rx="24.523" ry="24.64" transform="translate(152.091 113.386)" fill="#e0e0e0"/>
  </g>
</svg>
