<svg xmlns="http://www.w3.org/2000/svg" width="129.256" height="129.256" viewBox="0 0 129.256 129.256">
  <path id="Icon_metro-warning" data-name="Icon metro-warning" d="M67.2,13.639l54.164,107.952H13.035L67.2,13.639Zm0-11.711c-2.786,0-5.572,1.879-7.685,5.636L4.343,117.522c-4.227,7.515-.631,13.663,7.991,13.663h109.73c8.621,0,12.218-6.148,7.99-13.663h0L74.884,7.564c-2.113-3.757-4.9-5.636-7.685-5.636Zm8.079,105.021A8.079,8.079,0,1,1,67.2,98.87,8.079,8.079,0,0,1,75.277,106.949ZM67.2,90.792a8.079,8.079,0,0,1-8.079-8.079V58.478a8.079,8.079,0,1,1,16.157,0V82.713A8.079,8.079,0,0,1,67.2,90.792Z" transform="translate(-2.571 -1.928)" fill="#ff3f34"/>
</svg>
